#created with MagicaVoxel and VoxelOptimizer  - v:24 - f:16
o Mdl_Boney_1
mtllib Mdl_Boney_1.mtl
vn 0 1 0
vn 0 -1 0
vn -1 0 0
vn 1 0 0
vn 0 0 1
vn 0 0 -1
v -2.5 -6 -0.5
v -2.5 -6 0.5
v 2.5 -6 0.5
v 2.5 -6 -0.5
v -2.5 6 -0.5
v -2.5 6 0.5
v 2.5 6 0.5
v 2.5 6 -0.5
v -1.5 -6 -1.5
v -1.5 -6 -0.5
v 1.5 -6 -0.5
v 1.5 -6 -1.5
v -1.5 6 -1.5
v -1.5 6 -0.5
v 1.5 6 -0.5
v 1.5 6 -1.5
v -1.5 -6 0.5
v -1.5 -6 1.5
v 1.5 -6 1.5
v 1.5 -6 0.5
v -1.5 6 0.5
v -1.5 6 1.5
v 1.5 6 1.5
v 1.5 6 0.5
vt 0.0000 1.0000
vt 0.0000 0.6250
vt 0.1562 0.6250
vt 0.1562 1.0000
vt 0.0000 0.2500
vt 0.0938 0.2500
vt 0.0938 0.6250
vt 0.1875 0.2500
vt 0.1875 0.6250
vt 0.1875 1.0000
vt 0.2188 0.6250
vt 0.2188 1.0000
vt 0.2188 0.2500
vt 0.2500 0.6250
vt 0.2500 1.0000
vt 0.2500 0.2500
vt 0.2812 0.6250
vt 0.2812 1.0000
vt 0.0000 0.0938
vt 0.0312 0.0938
vt 0.0312 0.2500
vt 0.0000 0.0625
vt 0.0312 0.0625
usemtl x
f 5/19/1 6/20/1 7/21/1 8/5/1
f 4/19/2 3/20/2 2/21/2 1/5/2
f 4/2/6 1/3/6 5/4/6 8/1/6
f 2/3/5 3/2/5 7/1/5 6/4/5
f 1/3/3 2/9/3 6/10/3 5/4/3
f 3/9/4 4/11/4 8/12/4 7/10/4
f 13/22/1 14/23/1 15/20/1 16/19/1
f 12/22/2 11/23/2 10/20/2 9/19/2
f 12/5/6 9/6/6 13/7/6 16/2/6
f 9/8/3 10/13/3 14/11/3 13/9/3
f 11/11/4 12/14/4 16/15/4 15/12/4
f 21/22/1 22/23/1 23/20/1 24/19/1
f 20/22/2 19/23/2 18/20/2 17/19/2
f 18/6/5 19/8/5 23/9/5 22/7/5
f 17/13/3 18/16/3 22/14/3 21/11/3
f 19/14/4 20/17/4 24/18/4 23/15/4
