#created with MagicaVoxel and VoxelOptimizer  - v:304 - f:201
o Mdl_Boney_7
mtllib Mdl_Boney_7.mtl
vn 0 1 0
vn 0 -1 0
vn -1 0 0
vn 1 0 0
vn 0 0 1
vn 0 0 -1
v -3 -5.5 -4
v -3 -5.5 4
v 6 -5.5 4
v 6 -5.5 -4
v -3 6.5 -4
v -3 6.5 4
v 6 6.5 4
v 6 6.5 -4
v -2 -5.5 -5
v -2 -5.5 -4
v 5 -5.5 -4
v 5 -5.5 -5
v -2 6.5 -5
v -2 6.5 -4
v 5 6.5 -4
v 5 6.5 -5
v -2 -5.5 4
v -2 -5.5 5
v 5 -5.5 5
v 5 -5.5 4
v -2 6.5 4
v -2 6.5 5
v 5 6.5 5
v 5 6.5 4
v -7 -3.5 -6
v -7 -3.5 -4
v -6 -3.5 -4
v -6 -3.5 -6
v -7 0.5 -6
v -7 0.5 -4
v -6 0.5 -4
v -6 0.5 -6
v -7 -3.5 -3
v -7 -3.5 -2
v -6 -3.5 -2
v -6 -3.5 -3
v -7 -0.5 -3
v -7 -0.5 -2
v -6 -0.5 -2
v -6 -0.5 -3
v -7 -3.5 -1
v -7 -3.5 1
v -6 -3.5 1
v -6 -3.5 -1
v -7 -1.5 -1
v -7 -1.5 1
v -6 -1.5 1
v -6 -1.5 -1
v -7 -3.5 2
v -7 -3.5 3
v -6 -3.5 3
v -6 -3.5 2
v -7 -0.5 2
v -7 -0.5 3
v -6 -0.5 3
v -6 -0.5 2
v -7 -3.5 4
v -7 -3.5 6
v -6 -3.5 6
v -6 -3.5 4
v -7 0.5 4
v -7 0.5 6
v -6 0.5 6
v -6 0.5 4
v -6 -3.5 -5
v -4 -3.5 -5
v -4 -3.5 -6
v -6 5.5 -6
v -6 5.5 -5
v -4 5.5 -5
v -4 5.5 -6
v -6 -3.5 5
v -4 -3.5 6
v -4 -3.5 5
v -6 5.5 5
v -6 5.5 6
v -4 5.5 6
v -4 5.5 5
v -5 -3.5 -7
v -5 -3.5 -6
v -2 -3.5 -6
v -2 -3.5 -7
v -5 5.5 -7
v -5 5.5 -6
v -2 5.5 -6
v -2 5.5 -7
v -5 -3.5 6
v -5 -3.5 7
v -2 -3.5 7
v -2 -3.5 6
v -5 5.5 6
v -5 5.5 7
v -2 5.5 7
v -2 5.5 6
v -7 -2.5 -4
v -7 -2.5 -3
v -3 -2.5 -3
v -3 -2.5 -4
v -7 -0.5 -4
v -3 -0.5 -3
v -3 -0.5 -4
v -7 -2.5 -2
v -7 -2.5 -1
v -3 -2.5 -1
v -3 -2.5 -2
v -7 0.5 -2
v -7 0.5 -1
v -3 0.5 -1
v -3 0.5 -2
v -7 -2.5 1
v -7 -2.5 2
v -3 -2.5 2
v -3 -2.5 1
v -7 0.5 1
v -7 0.5 2
v -3 0.5 2
v -3 0.5 1
v -7 -2.5 3
v -7 -2.5 4
v -3 -2.5 4
v -3 -2.5 3
v -7 -0.5 4
v -3 -0.5 4
v -3 -0.5 3
v -6 -2.5 -5
v -6 -2.5 -4
v -2 -2.5 -4
v -2 -2.5 -5
v -6 5.5 -4
v -2 5.5 -4
v -2 5.5 -5
v -6 -2.5 -3
v -6 -2.5 -2
v -6 6.5 -3
v -6 6.5 -2
v -3 6.5 -2
v -3 6.5 -3
v -6 -2.5 -1
v -6 -2.5 1
v -6 6.5 -1
v -6 6.5 1
v -3 6.5 1
v -3 6.5 -1
v -6 -2.5 2
v -6 -2.5 3
v -6 6.5 2
v -6 6.5 3
v -3 6.5 3
v -3 6.5 2
v -6 -2.5 4
v -6 -2.5 5
v -2 -2.5 5
v -2 -2.5 4
v -6 5.5 4
v -2 5.5 5
v -2 5.5 4
v -4 -2.5 -6
v -4 -2.5 -5
v 6 -2.5 -5
v 6 -2.5 -6
v 6 5.5 -5
v 6 5.5 -6
v -4 -2.5 5
v -4 -2.5 6
v 6 -2.5 6
v 6 -2.5 5
v 6 5.5 6
v 6 5.5 5
v -2 -2.5 -7
v -2 -2.5 -6
v 6 -2.5 -7
v 6 5.5 -7
v -2 -2.5 6
v -2 -2.5 7
v 6 -2.5 7
v 6 5.5 7
v 5 -2.5 -5
v 5 -2.5 -4
v 7 -2.5 -4
v 7 -2.5 -5
v 5 5.5 -5
v 5 5.5 -4
v 7 5.5 -4
v 7 5.5 -5
v 5 -2.5 4
v 5 -2.5 5
v 7 -2.5 5
v 7 -2.5 4
v 5 5.5 4
v 5 5.5 5
v 7 5.5 5
v 7 5.5 4
v 6 -2.5 -4
v 6 -2.5 4
v 6 5.5 -4
v 6 5.5 4
v -6 -1.5 -7
v -6 -1.5 -6
v -5 -1.5 -6
v -5 -1.5 -7
v -6 4.5 -7
v -6 4.5 -6
v -5 4.5 -6
v -5 4.5 -7
v -6 -1.5 6
v -6 -1.5 7
v -5 -1.5 7
v -5 -1.5 6
v -6 4.5 6
v -6 4.5 7
v -5 4.5 7
v -5 4.5 6
v 6 -1.5 -6
v 6 -1.5 -5
v 7 -1.5 -5
v 7 -1.5 -6
v 6 4.5 -6
v 6 4.5 -5
v 7 4.5 -5
v 7 4.5 -6
v 6 -1.5 5
v 6 -1.5 6
v 7 -1.5 6
v 7 -1.5 5
v 6 4.5 5
v 6 4.5 6
v 7 4.5 6
v 7 4.5 5
v -7 -0.5 -1
v -7 -0.5 1
v -6 -0.5 1
v -6 -0.5 -1
v -7 5.5 -1
v -7 5.5 1
v -6 5.5 1
v -6 5.5 -1
v -6 -0.5 -4
v -6 5.5 -3
v -3 5.5 -3
v -3 5.5 -4
v -6 -0.5 4
v -6 5.5 3
v -3 5.5 4
v -3 5.5 3
v -7 0.5 -5
v -6 0.5 -5
v -7 4.5 -6
v -7 4.5 -5
v -6 4.5 -5
v -7 0.5 5
v -6 0.5 5
v -7 4.5 5
v -7 4.5 6
v -6 4.5 5
v -6 0.5 -2
v -6 0.5 -1
v -6 0.5 1
v -6 0.5 2
v -7 3.5 -5
v -7 3.5 -4
v -6 3.5 -4
v -6 3.5 -5
v -7 5.5 -5
v -7 5.5 -4
v -7 3.5 -2
v -7 3.5 -1
v -6 3.5 -1
v -6 3.5 -2
v -7 5.5 -2
v -6 5.5 -2
v -7 3.5 1
v -7 3.5 2
v -6 3.5 2
v -6 3.5 1
v -7 5.5 2
v -6 5.5 2
v -7 3.5 4
v -7 3.5 5
v -6 3.5 5
v -6 3.5 4
v -7 5.5 4
v -7 5.5 5
v -7 4.5 -4
v -7 4.5 -2
v -6 4.5 -2
v -6 4.5 -4
v -7 4.5 2
v -7 4.5 4
v -6 4.5 4
v -6 4.5 2
v -5 5.5 -4
v -5 5.5 -3
v -5 6.5 -4
v -5 6.5 -3
v -5 5.5 3
v -5 5.5 4
v -5 6.5 3
v -5 6.5 4
v -4 5.5 -4
v -4 6.5 -5
v -4 6.5 -4
v -4 5.5 4
v -4 6.5 4
v -4 6.5 5
vt 0.0000 1.0000
vt 0.0000 0.6250
vt 0.2812 0.6250
vt 0.2812 1.0000
vt 0.0000 0.2500
vt 0.2500 0.2500
vt 0.2500 0.6250
vt 0.5000 0.2500
vt 0.5000 0.6250
vt 0.5000 1.0000
vt 0.5000 0.7188
vt 0.7500 0.7188
vt 0.7500 1.0000
vt 1.0000 0.7188
vt 1.0000 1.0000
vt 0.0000 0.0000
vt 0.2500 0.0000
vt 0.5000 0.0000
vt 0.5000 0.4375
vt 0.5938 0.4375
vt 0.5938 0.7188
vt 0.5000 0.1562
vt 0.5938 0.1562
vt 0.6562 0.4375
vt 0.6562 0.7188
vt 0.5938 0.0625
vt 0.6250 0.0625
vt 0.6250 0.4375
vt 0.6250 0.1875
vt 0.6875 0.1875
vt 0.6875 0.4375
vt 0.6875 0.7188
vt 0.6875 0.4062
vt 0.7188 0.4062
vt 0.7188 0.7188
vt 0.6875 0.0938
vt 0.7188 0.0938
vt 0.7188 0.4375
vt 0.7500 0.4375
vt 0.6250 0.0938
vt 0.6250 0.0000
vt 0.7500 0.0000
vt 0.7500 0.0938
vt 0.7188 0.1875
vt 0.7500 0.1875
vt 0.7500 0.4688
vt 0.7812 0.4688
vt 0.7812 0.7188
vt 0.7500 0.2188
vt 0.7812 0.2188
vt 0.7188 0.1562
vt 0.9688 0.1562
vt 0.9688 0.1875
vt 0.9688 0.7188
vt 0.9688 0.5000
vt 1.0000 0.5000
vt 0.9688 0.2812
vt 1.0000 0.2812
vt 0.9688 0.0938
vt 1.0000 0.0938
vt 0.7812 0.5312
vt 0.8125 0.5312
vt 0.8125 0.7188
vt 0.7812 0.3438
vt 0.8125 0.3438
vt 0.8438 0.5312
vt 0.8438 0.7188
vt 0.5000 0.0312
vt 0.5312 0.0312
vt 0.5312 0.1562
vt 0.5312 0.0625
vt 0.5312 0.0000
vt 0.5625 0.0000
vt 0.5625 0.0625
vt 0.5625 0.0312
vt 0.5938 0.0312
vt 0.6250 0.0312
usemtl x
f 5/11/1 6/12/1 7/13/1 8/10/1
f 4/12/2 3/14/2 2/15/2 1/13/2
f 4/2/6 1/3/6 5/4/6 8/1/6
f 2/3/5 3/2/5 7/1/5 6/4/5
f 1/5/3 2/6/3 6/7/3 5/2/3
f 3/6/4 4/8/4 8/9/4 7/7/4
f 13/55/1 14/56/1 15/14/1 16/54/1
f 12/57/2 11/58/2 10/56/2 9/55/2
f 12/3/6 9/9/6 13/10/6 16/4/6
f 9/26/3 10/27/3 14/28/3 13/20/3
f 11/18/4 12/72/4 16/69/4 15/68/4
f 21/55/1 22/56/1 23/14/1 24/54/1
f 20/57/2 19/58/2 18/56/2 17/55/2
f 18/9/5 19/3/5 23/4/5 22/10/5
f 17/26/3 18/27/3 22/28/3 21/20/3
f 19/18/4 20/72/4 24/69/4 23/68/4
f 29/18/1 30/72/1 31/69/1 32/68/1
f 28/18/2 27/72/2 26/69/2 25/68/2
f 28/18/6 25/72/6 29/69/6 32/68/6
f 26/18/5 27/72/5 31/69/5 30/68/5
f 25/18/3 26/72/3 30/69/3 29/68/3
f 27/18/4 28/72/4 32/69/4 31/68/4
f 37/18/1 38/72/1 39/69/1 40/68/1
f 36/18/2 35/72/2 34/69/2 33/68/2
f 36/18/6 33/72/6 37/69/6 40/68/6
f 34/18/5 35/72/5 39/69/5 38/68/5
f 33/18/3 34/72/3 38/69/3 37/68/3
f 35/18/4 36/72/4 40/69/4 39/68/4
f 45/18/1 46/72/1 47/69/1 48/68/1
f 44/18/2 43/72/2 42/69/2 41/68/2
f 44/18/6 41/72/6 45/69/6 48/68/6
f 42/18/5 43/72/5 47/69/5 46/68/5
f 41/18/3 42/72/3 46/69/3 45/68/3
f 43/18/4 44/72/4 48/69/4 47/68/4
f 53/18/1 54/72/1 55/69/1 56/68/1
f 52/18/2 51/72/2 50/69/2 49/68/2
f 52/18/6 49/72/6 53/69/6 56/68/6
f 50/18/5 51/72/5 55/69/5 54/68/5
f 49/18/3 50/72/3 54/69/3 53/68/3
f 51/18/4 52/72/4 56/69/4 55/68/4
f 61/18/1 62/72/1 63/69/1 64/68/1
f 60/18/2 59/72/2 58/69/2 57/68/2
f 60/18/6 57/72/6 61/69/6 64/68/6
f 58/18/5 59/72/5 63/69/5 62/68/5
f 57/18/3 58/72/3 62/69/3 61/68/3
f 59/18/4 60/72/4 64/69/4 63/68/4
f 68/18/1 69/72/1 70/69/1 71/68/1
f 67/18/2 66/72/2 65/69/2 28/68/2
f 67/18/6 28/72/6 68/69/6 71/68/6
f 65/18/5 66/72/5 70/69/5 69/68/5
f 28/18/3 65/72/3 69/69/3 68/68/3
f 66/18/4 67/72/4 71/69/4 70/68/4
f 75/18/1 76/72/1 77/69/1 78/68/1
f 74/18/2 73/72/2 59/69/2 72/68/2
f 74/18/6 72/72/6 75/69/6 78/68/6
f 59/18/5 73/72/5 77/69/5 76/68/5
f 72/18/3 59/72/3 76/69/3 75/68/3
f 73/18/4 74/72/4 78/69/4 77/68/4
f 83/18/1 84/72/1 85/69/1 86/68/1
f 82/18/2 81/72/2 80/69/2 79/68/2
f 82/19/6 79/20/6 83/21/6 86/11/6
f 80/20/5 81/19/5 85/11/5 84/21/5
f 79/24/3 80/31/3 84/32/3 83/25/3
f 81/18/4 82/72/4 86/69/4 85/68/4
f 91/18/1 92/72/1 93/69/1 94/68/1
f 90/18/2 89/72/2 88/69/2 87/68/2
f 90/19/6 87/20/6 91/21/6 94/11/6
f 88/20/5 89/19/5 93/11/5 92/21/5
f 87/24/3 88/31/3 92/32/3 91/25/3
f 89/18/4 90/72/4 94/69/4 93/68/4
f 99/18/1 37/72/1 100/69/1 101/68/1
f 98/68/2 97/69/2 96/70/2 95/22/2
f 95/18/3 96/72/3 37/69/3 99/68/3
f 106/18/1 107/72/1 108/69/1 109/68/1
f 105/68/2 104/69/2 103/70/2 102/22/2
f 105/41/6 102/42/6 106/43/6 109/40/6
f 103/42/5 104/41/5 108/40/5 107/43/5
f 102/18/3 103/72/3 107/69/3 106/68/3
f 114/18/1 115/72/1 116/69/1 117/68/1
f 113/68/2 112/69/2 111/70/2 110/22/2
f 113/41/6 110/42/6 114/43/6 117/40/6
f 111/42/5 112/41/5 116/40/5 115/43/5
f 110/18/3 111/72/3 115/69/3 114/68/3
f 54/18/1 122/72/1 123/69/1 124/68/1
f 121/68/2 120/69/2 119/70/2 118/22/2
f 118/18/3 119/72/3 122/69/3 54/68/3
f 69/18/1 129/72/1 130/69/1 131/68/1
f 128/75/2 127/76/2 126/26/2 125/74/2
f 125/44/3 126/45/3 129/39/3 69/38/3
f 134/18/1 135/72/1 136/69/1 137/68/1
f 97/75/2 105/76/2 133/26/2 132/74/2
f 97/22/6 132/23/6 134/20/6 137/19/6
f 132/38/3 133/39/3 135/12/3 134/35/3
f 140/18/1 141/72/1 142/69/1 143/68/1
f 104/75/2 113/76/2 139/26/2 138/74/2
f 138/20/3 139/24/3 141/25/3 140/21/3
f 146/18/1 147/72/1 148/69/1 149/68/1
f 112/75/2 121/76/2 145/26/2 144/74/2
f 145/23/5 121/22/5 148/19/5 147/20/5
f 144/38/3 145/39/3 147/12/3 146/35/3
f 154/18/1 75/72/1 155/69/1 156/68/1
f 153/75/2 152/76/2 151/26/2 150/74/2
f 150/44/3 151/45/3 75/39/3 154/38/3
f 71/33/1 70/34/1 161/35/1 162/32/1
f 160/36/2 159/37/2 158/34/2 157/33/2
f 159/18/4 160/72/4 162/69/4 161/68/4
f 78/33/1 77/34/1 167/35/1 168/32/1
f 166/36/2 165/37/2 164/34/2 163/33/2
f 165/18/4 166/72/4 168/69/4 167/68/4
f 86/46/1 85/47/1 162/48/1 172/12/1
f 171/46/2 160/47/2 170/48/2 169/12/2
f 171/16/6 169/17/6 86/6/6 172/5/6
f 160/18/4 171/72/4 172/69/4 162/68/4
f 94/46/1 93/47/1 176/48/1 167/12/1
f 165/46/2 175/47/2 174/48/2 173/12/2
f 174/17/5 175/16/5 176/5/5 93/6/5
f 175/18/4 165/72/4 167/69/4 176/68/4
f 181/18/1 182/72/1 183/69/1 184/68/1
f 180/76/2 179/77/2 178/27/2 177/26/2
f 180/29/6 177/30/6 181/31/6 184/28/6
f 179/49/4 180/50/4 184/47/4 183/46/4
f 189/18/1 190/72/1 191/69/1 192/68/1
f 188/76/2 187/77/2 186/27/2 185/26/2
f 186/30/5 187/29/5 191/28/5 190/31/5
f 187/49/4 188/50/4 192/47/4 191/46/4
f 195/18/1 196/72/1 192/69/1 183/68/1
f 179/51/2 188/52/2 194/53/2 193/44/2
f 188/17/4 179/18/4 183/8/4 192/6/4
f 201/18/1 202/72/1 203/69/1 204/68/1
f 200/18/2 199/72/2 198/69/2 197/68/2
f 200/59/6 197/60/6 201/58/6 204/57/6
f 197/59/3 198/60/3 202/58/3 201/57/3
f 209/18/1 210/72/1 211/69/1 212/68/1
f 208/18/2 207/72/2 206/69/2 205/68/2
f 206/59/5 207/60/5 211/58/5 210/57/5
f 205/59/3 206/60/3 210/58/3 209/57/3
f 217/18/1 218/72/1 219/69/1 220/68/1
f 216/76/2 215/77/2 214/27/2 213/26/2
f 216/61/6 213/62/6 217/63/6 220/48/6
f 215/61/4 216/62/4 220/63/4 219/48/4
f 225/18/1 226/72/1 227/69/1 228/68/1
f 224/76/2 223/77/2 222/27/2 221/26/2
f 222/61/5 223/62/5 227/63/5 226/48/5
f 223/61/4 224/62/4 228/63/4 227/48/4
f 233/18/1 234/72/1 235/69/1 236/68/1
f 232/18/2 231/72/2 230/69/2 229/68/2
f 232/18/6 229/72/6 233/69/6 236/68/6
f 230/18/5 231/72/5 235/69/5 234/68/5
f 229/18/3 230/72/3 234/69/3 233/68/3
f 129/18/1 238/72/1 239/69/1 240/68/1
f 237/64/3 40/65/3 238/62/3 129/61/3
f 242/18/1 154/72/1 243/69/1 244/68/1
f 55/64/3 241/65/3 154/62/3 242/61/3
f 247/18/1 248/72/1 249/69/1 202/68/1
f 32/18/6 29/72/6 247/69/6 202/68/6
f 245/18/5 246/72/5 249/69/5 248/68/5
f 29/18/3 245/72/3 248/69/3 247/68/3
f 252/18/1 253/72/1 209/69/1 254/68/1
f 251/18/6 250/72/6 252/69/6 254/68/6
f 62/18/5 63/72/5 209/69/5 253/68/5
f 250/18/3 62/72/3 253/69/3 252/68/3
f 135/18/1 140/72/1 143/69/1 136/68/1
f 255/62/3 256/66/3 140/67/3 135/63/3
f 141/18/1 146/72/1 149/69/1 142/68/1
f 257/62/3 258/66/3 146/67/3 141/63/3
f 263/18/1 264/72/1 129/69/1 69/68/1
f 262/76/2 261/77/2 260/27/2 259/26/2
f 262/72/6 259/73/6 263/74/6 69/71/6
f 260/72/5 261/73/5 129/74/5 264/71/5
f 259/72/3 260/73/3 264/74/3 263/71/3
f 269/76/1 233/77/1 236/27/1 270/26/1
f 268/18/2 267/72/2 266/69/2 265/68/2
f 268/74/6 265/71/6 269/72/6 270/73/6
f 265/74/3 266/71/3 233/72/3 269/73/3
f 234/76/1 275/77/1 276/27/1 235/26/1
f 274/18/2 273/72/2 272/69/2 271/68/2
f 272/74/5 273/71/5 276/72/5 275/73/5
f 271/74/3 272/71/3 275/72/3 234/73/3
f 281/18/1 282/72/1 75/69/1 154/68/1
f 280/76/2 279/77/2 278/27/2 277/26/2
f 280/72/6 277/73/6 281/74/6 154/71/6
f 278/72/5 279/73/5 75/74/5 282/71/5
f 277/72/3 278/73/3 282/74/3 281/71/3
f 264/18/1 269/72/1 270/69/1 129/68/1
f 286/18/2 285/72/2 284/69/2 283/68/2
f 283/18/3 284/72/3 269/69/3 264/68/3
f 275/18/1 281/72/1 154/69/1 276/68/1
f 290/18/2 289/72/2 288/69/2 287/68/2
f 287/18/3 288/72/3 281/69/3 275/68/3
f 293/18/1 294/72/1 137/69/1 5/68/1
f 240/18/6 291/72/6 293/69/6 5/68/6
f 291/18/3 292/72/3 294/69/3 293/68/3
f 297/18/1 298/72/1 6/69/1 148/68/1
f 296/18/5 243/72/5 6/69/5 298/68/5
f 295/18/3 296/72/3 298/69/3 297/68/3
f 300/18/1 301/72/1 14/69/1 13/68/1
f 131/18/6 70/72/6 300/69/6 13/68/6
f 70/18/3 299/72/3 301/69/3 300/68/3
f 303/18/1 304/72/1 22/69/1 21/68/1
f 78/18/5 155/72/5 22/69/5 304/68/5
f 302/18/3 78/72/3 304/69/3 303/68/3
